<?xml version="1.0" encoding="iso-8859-1"?>
<!-- Generator: Adobe Illustrator 19.0.0, SVG Export Plug-In . SVG Version: 6.00 Build 0)  -->
<svg version="1.1" id="Layer_1" xmlns="http://www.w3.org/2000/svg" xmlns:xlink="http://www.w3.org/1999/xlink" x="0px" y="0px"
	 viewBox="0 0 512 512" style="enable-background:new 0 0 512 512;" xml:space="preserve">
<circle style="fill:#FFEDB5;" cx="256" cy="256" r="256"/>
<path style="fill:#FEE187;" d="M266.126,511.783c128.969-5.02,233.434-105.432,244.824-232.669L349.201,117.365L186.182,333.864
	l42.755,38.547l-67.163,21.345l49.869,49.654l-12.531,1.358L266.126,511.783z"/>
<rect x="199.111" y="387.879" style="fill:#C92F00;" width="28.444" height="56.889"/>
<path style="fill:#FF7F4F;" d="M338.891,398.222H173.108c-9.204,0-16.663-7.461-16.663-16.665V130.441
	c0-9.204,7.461-16.663,16.663-16.663h165.783c9.204,0,16.665,7.461,16.665,16.663v251.116
	C355.556,390.761,348.094,398.222,338.891,398.222z"/>
<path style="fill:#D35933;" d="M338.891,113.778h-72.547v284.444h72.547c9.204,0,16.665-7.461,16.665-16.665V130.443
	C355.556,121.239,348.094,113.778,338.891,113.778z"/>
<path style="fill:#FFC61B;" d="M220.084,227.556h99.412c3.967,0,7.184-3.215,7.184-7.182V177.85c0-3.967-3.215-7.182-7.184-7.182
	h-99.412c-3.967,0-7.182,3.215-7.182,7.182v42.524C212.902,224.34,216.117,227.556,220.084,227.556z"/>
<path style="fill:#EAA22F;" d="M319.497,170.667h-53.153v56.889h53.153c3.967,0,7.184-3.215,7.184-7.184v-42.524
	C326.68,173.882,323.465,170.667,319.497,170.667z"/>
<rect x="183.165" y="121.535" style="fill:#D35933;" width="3.448" height="268.929"/>
<g>
</g>
<g>
</g>
<g>
</g>
<g>
</g>
<g>
</g>
<g>
</g>
<g>
</g>
<g>
</g>
<g>
</g>
<g>
</g>
<g>
</g>
<g>
</g>
<g>
</g>
<g>
</g>
<g>
</g>
</svg>
